<svg xmlns="http://www.w3.org/2000/svg" xmlns:xlink="http://www.w3.org/1999/xlink" width="1122" zoomAndPan="magnify" viewBox="0 0 841.92 595.499987" height="793" preserveAspectRatio="xMidYMid meet" version="1.0"><defs><g/></defs><g fill="#000000" fill-opacity="1"><g transform="translate(204.932031, 352.642254)"><g><path d="M 1.34375 0 L 1.34375 -5.8125 L 9.59375 -5.8125 L 9.59375 -79.296875 L 1.34375 -79.296875 L 1.34375 -88.46875 L 36.34375 -88.46875 C 43.8125 -88.46875 50.289062 -86.398438 55.78125 -82.265625 C 61.457031 -77.847656 64.296875 -72.175781 64.296875 -65.25 C 64.296875 -60.019531 62.898438 -55.425781 60.109375 -51.46875 C 58.847656 -49.664062 57.363281 -48.046875 55.65625 -46.609375 C 58.894531 -45.078125 61.726562 -43.003906 64.15625 -40.390625 C 68.300781 -35.890625 70.375 -29.988281 70.375 -22.6875 C 70.375 -21.613281 70.304688 -20.554688 70.171875 -19.515625 C 70.035156 -18.484375 69.832031 -17.472656 69.5625 -16.484375 C 69.289062 -15.492188 68.972656 -14.546875 68.609375 -13.640625 C 68.253906 -12.742188 67.828125 -11.84375 67.328125 -10.9375 C 66.835938 -10.039062 66.273438 -9.1875 65.640625 -8.375 C 65.015625 -7.5625 64.316406 -6.769531 63.546875 -6 C 62.785156 -5.238281 62 -4.546875 61.1875 -3.921875 C 55.25 0.941406 48.09375 3.375 39.71875 3.375 L 1.34375 3.375 Z M 39.03125 -39.984375 L 27.421875 -39.984375 L 27.421875 -7.15625 L 39.03125 -7.15625 C 43.351562 -7.15625 46.6875 -8.6875 49.03125 -11.75 C 51.550781 -15.082031 52.8125 -19.046875 52.8125 -23.640625 C 52.8125 -25.984375 52.492188 -28.117188 51.859375 -30.046875 C 51.234375 -31.984375 50.289062 -33.765625 49.03125 -35.390625 C 47.769531 -36.921875 46.351562 -38.066406 44.78125 -38.828125 C 43.207031 -39.597656 41.289062 -39.984375 39.03125 -39.984375 Z M 33.5 -77.9375 L 27.421875 -77.9375 L 27.421875 -50.109375 L 34.3125 -50.109375 C 35.84375 -50.109375 37.171875 -50.265625 38.296875 -50.578125 C 39.421875 -50.898438 40.410156 -51.351562 41.265625 -51.9375 C 42.117188 -52.519531 42.863281 -53.265625 43.5 -54.171875 C 44.570312 -55.609375 45.378906 -57.203125 45.921875 -58.953125 C 46.460938 -60.710938 46.734375 -62.675781 46.734375 -64.84375 C 46.734375 -68.800781 45.65625 -71.992188 43.5 -74.421875 C 41.519531 -76.765625 38.1875 -77.9375 33.5 -77.9375 Z M 33.5 -77.9375 "/></g></g></g><g fill="#000000" fill-opacity="1"><g transform="translate(273.951763, 352.642254)"><g><path d="M 10.9375 -5.8125 L 10.9375 -52.546875 L 2.703125 -52.546875 L 2.703125 -61.734375 L 12.703125 -61.734375 C 17.828125 -61.734375 21.335938 -61.957031 23.234375 -62.40625 L 27.421875 -63.484375 L 27.421875 -5.8125 L 35.65625 -5.8125 L 35.65625 3.375 L 2.703125 3.375 L 2.703125 -5.8125 Z M 12.28125 -70.90625 C 10.394531 -72.800781 9.453125 -75.097656 9.453125 -77.796875 C 9.453125 -80.503906 10.394531 -82.800781 12.28125 -84.6875 C 14.175781 -86.582031 16.476562 -87.53125 19.1875 -87.53125 C 20.53125 -87.53125 21.785156 -87.28125 22.953125 -86.78125 C 24.128906 -86.289062 25.164062 -85.59375 26.0625 -84.6875 C 26.695312 -84.0625 27.21875 -83.390625 27.625 -82.671875 C 28.03125 -81.953125 28.34375 -81.1875 28.5625 -80.375 C 28.789062 -79.5625 28.90625 -78.707031 28.90625 -77.8125 C 28.90625 -75.101562 27.957031 -72.800781 26.0625 -70.90625 C 24.175781 -69.019531 21.878906 -68.078125 19.171875 -68.078125 C 16.472656 -68.078125 14.175781 -69.019531 12.28125 -70.90625 Z M 12.28125 -70.90625 "/></g></g></g><g fill="#000000" fill-opacity="1"><g transform="translate(310.285044, 352.642254)"><g><path d="M 8.921875 -5.8125 L 8.921875 -81.71875 L 0.671875 -81.71875 L 0.671875 -90.90625 L 10.671875 -90.90625 C 15.804688 -90.90625 19.316406 -91.128906 21.203125 -91.578125 L 25.390625 -92.65625 L 25.390625 -5.8125 L 33.640625 -5.8125 L 33.640625 3.375 L 0.671875 3.375 L 0.671875 -5.8125 Z M 40.125 -61.734375 L 61.59375 -61.734375 L 61.59375 -52.546875 L 53.625 -52.546875 C 53.53125 -52.453125 53.394531 -52.363281 53.21875 -52.28125 L 37.6875 -34.4375 L 57.40625 -5.8125 L 65.640625 -5.8125 L 65.640625 3.375 L 55.921875 3.375 C 54.566406 3.375 53.304688 3.394531 52.140625 3.4375 C 50.972656 3.488281 49.957031 3.582031 49.09375 3.71875 C 48.238281 3.851562 47.539062 3.960938 47 4.046875 L 44.703125 4.59375 L 43.359375 2.703125 L 21.75 -28.765625 L 20.265625 -30.9375 L 22.015625 -32.953125 L 39.4375 -52.546875 L 36.734375 -52.546875 L 36.734375 -61.734375 Z M 40.125 -61.734375 "/></g></g></g><g fill="#000000" fill-opacity="1"><g transform="translate(371.200704, 352.642254)"><g><path d="M 32.6875 -63.359375 C 39.894531 -63.359375 45.660156 -60.878906 49.984375 -55.921875 C 54.117188 -51.148438 56.1875 -44.351562 56.1875 -35.53125 C 56.1875 -34.625 56.164062 -33.695312 56.125 -32.75 C 56.082031 -31.8125 56.015625 -30.847656 55.921875 -29.859375 L 55.65625 -26.75 L 19.046875 -26.75 C 19.316406 -19.988281 20.6875 -14.671875 23.15625 -10.796875 C 25.632812 -6.929688 28.722656 -5 32.421875 -5 C 36.472656 -5 39.757812 -6.035156 42.28125 -8.109375 C 42.632812 -8.378906 42.992188 -8.671875 43.359375 -8.984375 C 43.722656 -9.296875 44.035156 -9.628906 44.296875 -9.984375 C 44.566406 -10.347656 44.835938 -10.734375 45.109375 -11.140625 C 45.378906 -11.546875 45.648438 -11.972656 45.921875 -12.421875 C 46.191406 -12.878906 46.414062 -13.351562 46.59375 -13.84375 C 46.78125 -14.34375 46.960938 -14.859375 47.140625 -15.390625 C 47.316406 -15.929688 47.5 -16.472656 47.6875 -17.015625 L 48.5 -20.125 L 51.59375 -19.453125 L 54.171875 -18.90625 L 57.40625 -18.234375 L 56.875 -15 C 55.613281 -8.6875 52.6875 -3.773438 48.09375 -0.265625 C 43.675781 3.242188 38.539062 5 32.6875 5 C 23.863281 5 16.523438 1.890625 10.671875 -4.328125 C 4.910156 -10.453125 2.03125 -18.710938 2.03125 -29.109375 C 2.03125 -39.503906 4.957031 -47.8125 10.8125 -54.03125 C 16.664062 -60.25 23.957031 -63.359375 32.6875 -63.359375 Z M 40.125 -40.125 C 40.125 -45.070312 39.398438 -48.515625 37.953125 -50.453125 C 36.515625 -52.390625 34.21875 -53.359375 31.0625 -53.359375 C 28.1875 -53.359375 25.578125 -51.601562 23.234375 -48.09375 C 22.960938 -47.632812 22.691406 -47.179688 22.421875 -46.734375 C 22.148438 -46.285156 21.898438 -45.789062 21.671875 -45.25 C 21.453125 -44.707031 21.25 -44.164062 21.0625 -43.625 C 20.882812 -43.082031 20.707031 -42.519531 20.53125 -41.9375 C 20.351562 -41.351562 20.195312 -40.742188 20.0625 -40.109375 C 19.925781 -39.484375 19.789062 -38.851562 19.65625 -38.21875 C 19.519531 -37.59375 19.453125 -36.921875 19.453125 -36.203125 L 39.84375 -36.203125 C 40.03125 -37.734375 40.125 -39.039062 40.125 -40.125 Z M 40.125 -40.125 "/></g></g></g><g fill="#000000" fill-opacity="1"><g transform="translate(430.765693, 352.642254)"><g><path d="M 1.34375 0 L 1.34375 -5.8125 L 9.59375 -5.8125 L 9.59375 -79.296875 L 1.34375 -79.296875 L 1.34375 -88.46875 L 35.65625 -88.46875 L 35.65625 -79.296875 L 27.421875 -79.296875 L 27.421875 -7.15625 L 50.921875 -7.15625 C 51.015625 -7.15625 51.101562 -7.15625 51.1875 -7.15625 C 51.28125 -7.15625 51.328125 -7.15625 51.328125 -7.15625 L 52 -12.15625 L 53.359375 -22.96875 L 53.765625 -25.9375 L 63.21875 -25.9375 L 63.21875 -16.203125 C 63.21875 -12.421875 63.304688 -9.113281 63.484375 -6.28125 C 63.660156 -3.445312 63.929688 -1.171875 64.296875 0.546875 L 65.515625 5.9375 L 60.109375 4.453125 C 57.585938 3.734375 52.90625 3.375 46.0625 3.375 L 1.34375 3.375 Z M 1.34375 0 "/></g></g></g><g fill="#000000" fill-opacity="1"><g transform="translate(491.816422, 352.642254)"><g><path d="M 2.03125 -29.171875 C 2.03125 -34.304688 2.726562 -38.96875 4.125 -43.15625 C 5.519531 -47.34375 7.632812 -50.96875 10.46875 -54.03125 C 13.300781 -57.09375 16.585938 -59.410156 20.328125 -60.984375 C 24.066406 -62.566406 28.1875 -63.359375 32.6875 -63.359375 C 41.78125 -63.359375 49.210938 -60.25 54.984375 -54.03125 C 60.648438 -47.90625 63.484375 -39.617188 63.484375 -29.171875 C 63.484375 -18.734375 60.648438 -10.453125 54.984375 -4.328125 C 49.210938 1.890625 41.78125 5 32.6875 5 C 23.59375 5 16.207031 1.890625 10.53125 -4.328125 C 4.863281 -10.453125 2.03125 -18.734375 2.03125 -29.171875 Z M 19.046875 -29.171875 C 19.046875 -21.253906 20.488281 -15.085938 23.375 -10.671875 C 25.976562 -6.710938 29.101562 -4.734375 32.75 -4.734375 C 36.40625 -4.734375 39.535156 -6.710938 42.140625 -10.671875 C 45.023438 -15.085938 46.46875 -21.253906 46.46875 -29.171875 C 46.46875 -37.097656 45.023438 -43.269531 42.140625 -47.6875 C 39.535156 -51.644531 36.40625 -53.625 32.75 -53.625 C 29.101562 -53.625 25.976562 -51.644531 23.375 -47.6875 C 20.488281 -43.269531 19.046875 -37.097656 19.046875 -29.171875 Z M 19.046875 -29.171875 "/></g></g></g><g fill="#000000" fill-opacity="1"><g transform="translate(557.324396, 352.642254)"><g><path d="M 63.359375 -61.734375 L 83.890625 -61.734375 L 83.890625 -52.546875 L 76.71875 -52.546875 L 60.109375 0.953125 L 59.296875 3.375 L 50.796875 3.375 L 49.984375 1.078125 L 39.578125 -30.9375 L 29.171875 1.078125 L 28.359375 3.375 L 19.859375 3.375 L 19.046875 0.953125 L 2.4375 -52.546875 L -4.734375 -52.546875 L -4.734375 -61.734375 L 24.859375 -61.734375 L 24.859375 -52.546875 L 19.1875 -52.546875 L 27.015625 -25.9375 L 37.015625 -57 L 37.828125 -59.296875 L 46.734375 -59.296875 L 47.546875 -57 L 57.546875 -25.9375 L 65.640625 -52.546875 L 59.96875 -52.546875 L 59.96875 -61.734375 Z M 63.359375 -61.734375 "/></g></g></g></svg>